<svg version="1.1" id="Layer_1" xmlns="http://www.w3.org/2000/svg" xmlns:xlink="http://www.w3.org/1999/xlink" x="0px" y="0px"
	 width="100%" viewBox="0 0 192 192" enable-background="new 0 0 192 192" xml:space="preserve">
<path fill="#FEFEFE" opacity="1.000000" stroke="none" 
	d="
M1.000001,118.000000 
	C1.000000,104.312439 1.000000,90.624878 1.337853,76.765251 
	C2.102936,76.111168 2.727848,75.699158 2.927165,75.136421 
	C5.206849,68.700043 7.227628,62.165451 9.694641,55.803310 
	C14.707951,42.874577 23.540018,32.715557 33.805454,23.711042 
	C44.979664,13.909379 57.568466,6.814256 72.303429,3.809264 
	C73.669769,3.530619 74.774040,1.966983 76.000000,1.000000 
	C89.687561,1.000000 103.375122,1.000000 117.234749,1.337852 
	C117.888824,2.102935 118.300812,2.727852 118.863541,2.927166 
	C125.299911,5.206841 131.834503,7.227602 138.196625,9.694620 
	C151.125336,14.707946 161.284424,23.539881 170.288910,33.805386 
	C180.090515,44.979660 187.185760,57.568352 190.190689,72.303360 
	C190.469345,73.669716 192.033005,74.774017 193.000000,76.000000 
	C193.000000,89.687561 193.000000,103.375122 192.662140,117.234749 
	C191.897064,117.888824 191.272156,118.300827 191.072845,118.863571 
	C188.793152,125.299942 186.772400,131.834549 184.305328,138.196655 
	C179.291931,151.125290 170.460144,161.284485 160.194595,170.288940 
	C149.020309,180.090561 136.431595,187.185806 121.696579,190.190735 
	C120.330246,190.469376 119.225960,192.033020 118.000000,193.000000 
	C104.312439,193.000000 90.624878,193.000000 76.765251,192.662155 
	C76.111176,191.897079 75.699196,191.272125 75.136452,191.072800 
	C68.700081,188.793121 62.165451,186.772446 55.803341,184.305374 
	C42.874687,179.291962 32.715527,170.460098 23.711048,160.194550 
	C13.909454,149.020279 6.814290,136.431534 3.809271,121.696571 
	C3.530622,120.330231 1.966986,119.225952 1.000001,118.000000 
M87.771019,75.766708 
	C92.383667,82.491982 96.987000,89.223671 101.612274,95.940254 
	C104.627556,100.318901 113.831917,100.400978 116.820999,96.047310 
	C126.900803,81.365768 136.952606,66.664986 147.012024,51.969433 
	C150.337494,47.111347 153.653580,42.246838 156.906479,37.484062 
	C148.995239,35.008175 144.724686,38.373268 140.705215,44.596695 
	C130.714066,60.066151 119.953568,75.038712 109.104858,90.787369 
	C106.795753,87.369789 104.810188,84.431061 102.875282,81.567314 
	C112.937668,66.669075 122.752876,52.136799 132.646194,37.488888 
	C125.263039,35.491947 120.702789,37.488960 116.931747,43.789444 
	C110.993523,53.710758 104.016220,63.010155 97.109375,73.113266 
	C89.946800,62.677631 83.113014,52.692108 76.247566,42.728401 
	C71.609871,35.997791 70.495171,35.617771 61.663486,37.696884 
	C70.270012,50.269371 78.800850,62.731285 87.771019,75.766708 
M60.797947,55.654831 
	C57.798813,51.270546 54.807083,46.881172 51.798767,42.503197 
	C47.517490,36.272694 45.295063,35.526756 37.400940,37.740871 
	C49.987434,56.127743 62.548450,74.462921 75.092506,92.809685 
	C79.861534,99.784782 80.972565,100.222366 89.953819,98.171738 
	C80.314789,84.118622 70.757339,70.184425 60.797947,55.654831 
M111.427124,154.888138 
	C111.427124,138.750122 111.427124,122.612114 111.427124,106.381195 
	C108.221741,106.381195 105.485893,106.381195 102.704926,106.381195 
	C102.704926,123.550056 102.704926,140.429977 102.704926,158.502853 
	C106.047928,157.453308 108.730980,156.610962 111.427124,154.888138 
M91.743896,106.978226 
	C88.933517,106.600502 86.123131,106.222771 83.153427,105.823624 
	C83.153427,123.483467 83.153427,140.360260 83.153427,157.215240 
	C86.218140,157.215240 88.951355,157.215240 91.868935,157.215240 
	C91.868935,140.534317 91.868935,124.217499 91.743896,106.978226 
z"/>
<path fill="#000000" opacity="1.000000" stroke="none" 
	d="
M75.531342,1.000000 
	C74.774040,1.966983 73.669769,3.530619 72.303429,3.809264 
	C57.568466,6.814256 44.979664,13.909379 33.805454,23.711042 
	C23.540018,32.715557 14.707951,42.874577 9.694641,55.803310 
	C7.227628,62.165451 5.206849,68.700043 2.927165,75.136421 
	C2.727848,75.699158 2.102936,76.111168 1.337853,76.296593 
	C1.000000,51.073132 1.000000,26.146261 1.000000,1.000000 
	C25.687128,1.000000 50.374905,1.000000 75.531342,1.000000 
z"/>
<path fill="#000000" opacity="1.000000" stroke="none" 
	d="
M193.000000,75.531342 
	C192.033005,74.774017 190.469345,73.669716 190.190689,72.303360 
	C187.185760,57.568352 180.090515,44.979660 170.288910,33.805386 
	C161.284424,23.539881 151.125336,14.707946 138.196625,9.694620 
	C131.834503,7.227602 125.299911,5.206841 118.863541,2.927166 
	C118.300812,2.727852 117.888824,2.102935 117.703407,1.337852 
	C142.926865,1.000000 167.853729,1.000000 193.000000,1.000000 
	C193.000000,25.687128 193.000000,50.374905 193.000000,75.531342 
z"/>
<path fill="#000000" opacity="1.000000" stroke="none" 
	d="
M1.000001,118.468658 
	C1.966986,119.225952 3.530622,120.330231 3.809271,121.696571 
	C6.814290,136.431534 13.909454,149.020279 23.711048,160.194550 
	C32.715527,170.460098 42.874687,179.291962 55.803341,184.305374 
	C62.165451,186.772446 68.700081,188.793121 75.136452,191.072800 
	C75.699196,191.272125 76.111176,191.897079 76.296593,192.662155 
	C51.073124,193.000000 26.146250,193.000000 1.000000,193.000000 
	C1.000000,168.312866 1.000000,143.625092 1.000001,118.468658 
z"/>
<path fill="#000000" opacity="1.000000" stroke="none" 
	d="
M118.468658,193.000000 
	C119.225960,192.033020 120.330246,190.469376 121.696579,190.190735 
	C136.431595,187.185806 149.020309,180.090561 160.194595,170.288940 
	C170.460144,161.284485 179.291931,151.125290 184.305328,138.196655 
	C186.772400,131.834549 188.793152,125.299942 191.072845,118.863571 
	C191.272156,118.300827 191.897064,117.888824 192.662140,117.703407 
	C193.000000,142.926865 193.000000,167.853745 193.000000,193.000000 
	C168.312866,193.000000 143.625092,193.000000 118.468658,193.000000 
z"/>
<path fill="#080808" opacity="1.000000" stroke="none" 
	d="
M87.551353,75.479950 
	C78.800850,62.731285 70.270012,50.269371 61.663486,37.696884 
	C70.495171,35.617771 71.609871,35.997791 76.247566,42.728401 
	C83.113014,52.692108 89.946800,62.677631 97.109375,73.113266 
	C104.016220,63.010155 110.993523,53.710758 116.931747,43.789444 
	C120.702789,37.488960 125.263039,35.491947 132.646194,37.488888 
	C122.752876,52.136799 112.937668,66.669075 102.875282,81.567314 
	C104.810188,84.431061 106.795753,87.369789 109.104858,90.787369 
	C119.953568,75.038712 130.714066,60.066151 140.705215,44.596695 
	C144.724686,38.373268 148.995239,35.008175 156.906479,37.484062 
	C153.653580,42.246838 150.337494,47.111347 147.012024,51.969433 
	C136.952606,66.664986 126.900803,81.365768 116.820999,96.047310 
	C113.831917,100.400978 104.627556,100.318901 101.612274,95.940254 
	C96.987000,89.223671 92.383667,82.491982 87.551353,75.479950 
z"/>
<path fill="#090909" opacity="1.000000" stroke="none" 
	d="
M60.998917,55.952534 
	C70.757339,70.184425 80.314789,84.118622 89.953819,98.171738 
	C80.972565,100.222366 79.861534,99.784782 75.092506,92.809685 
	C62.548450,74.462921 49.987434,56.127743 37.400940,37.740871 
	C45.295063,35.526756 47.517490,36.272694 51.798767,42.503197 
	C54.807083,46.881172 57.798813,51.270546 60.998917,55.952534 
z"/>
<path fill="#0F0F0F" opacity="1.000000" stroke="none" 
	d="
M111.420578,155.328369 
	C108.730980,156.610962 106.047928,157.453308 102.704926,158.502853 
	C102.704926,140.429977 102.704926,123.550056 102.704926,106.381195 
	C105.485893,106.381195 108.221741,106.381195 111.427124,106.381195 
	C111.427124,122.612114 111.427124,138.750122 111.420578,155.328369 
z"/>
<path fill="#090909" opacity="1.000000" stroke="none" 
	d="
M91.806412,107.439453 
	C91.868935,124.217499 91.868935,140.534317 91.868935,157.215240 
	C88.951355,157.215240 86.218140,157.215240 83.153427,157.215240 
	C83.153427,140.360260 83.153427,123.483467 83.153427,105.823624 
	C86.123131,106.222771 88.933517,106.600502 91.806412,107.439453 
z"/>
</svg>