<?xml version="1.0" encoding="utf-8"?>
<!-- Generator: Adobe Illustrator 22.0.1, SVG Export Plug-In . SVG Version: 6.00 Build 0)  -->
<svg version="1.1" id="Layer_1" xmlns="http://www.w3.org/2000/svg" xmlns:xlink="http://www.w3.org/1999/xlink" x="0px" y="0px"
	 viewBox="0 0 512 512" style="enable-background:new 0 0 512 512;" xml:space="preserve">
<style type="text/css">
	.st0{fill:#35216D;}
	.st1{fill:#EDF3FC;}
	.st2{fill:#330D84;}
	.st3{fill:#FFBE1B;}
	.st4{fill:#0061F3;}
	.st5{fill:#8C7BFD;}
	.st6{fill:#FFFFFF;}
	.st7{fill:#5932AE;}
	.st8{fill:#1C46C4;}
	.st9{fill:#6857E5;}
	.st10{fill:#5D8EF9;}
	.st11{fill:#8AC9F9;}
	.st12{fill:#FFE37B;}
	.st13{fill:#FFD000;}
	.st14{fill:#2EF39E;}
	.st15{fill:#330D84;stroke:#330D84;stroke-width:0.6306;stroke-linecap:round;stroke-linejoin:round;stroke-miterlimit:10;}
	.st16{fill:#FFFFFF;stroke:#FFFFFF;stroke-width:0.737;stroke-linecap:round;stroke-linejoin:round;stroke-miterlimit:10;}
	.st17{fill:none;}
	.st18{fill:#FDB813;}
</style>
<g>
	<g>
		<g>
			<path class="st1" d="M255.999,40.928c-118.778,0-215.071,96.294-215.071,215.074c0,118.776,96.293,215.068,215.071,215.068
				S471.07,374.778,471.07,256.002C471.07,137.222,374.777,40.928,255.999,40.928z"/>
		</g>
	</g>
	<g>
		<g>
			<path class="st1" d="M255.999,1C115.391,1,1,115.392,1,256.002C1,396.609,115.391,511,255.999,511S511,396.609,511,256.002
				C511,115.392,396.607,1,255.999,1z M255.999,502.831c-136.103,0-246.83-110.727-246.83-246.829
				c0-136.104,110.727-246.834,246.83-246.834c136.102,0,246.832,110.729,246.832,246.834
				C502.831,392.104,392.101,502.831,255.999,502.831z"/>
		</g>
	</g>
	<g>
		<g>
			<path class="st10" d="M373.356,127.99c-14.075-3.524-25.06-14.515-28.592-28.588L344.167,97l-0.605,2.402
				c-3.525,14.073-14.515,25.064-28.588,28.588l-2.403,0.605l2.403,0.605c14.073,3.525,25.063,14.513,28.588,28.585l0.605,2.401
				l0.597-2.401c3.532-14.072,14.517-25.06,28.592-28.585l2.404-0.605L373.356,127.99z"/>
		</g>
	</g>
	<path class="st3" d="M418.88,160.994l1.416,0.355l-1.416,0.355c-8.289,2.076-14.757,8.547-16.833,16.835l-0.357,1.413l-0.354-1.413
		c-2.076-8.288-8.547-14.759-16.838-16.835l-1.411-0.355l1.411-0.355c8.291-2.076,14.762-8.548,16.838-16.833l0.354-1.413
		l0.357,1.413C404.123,152.446,410.591,158.917,418.88,160.994L418.88,160.994z"/>
	<path class="st2" d="M215.16,388.762l2.996,0.713l-2.996,0.716c-17.516,4.204-31.187,17.306-35.587,34.081l-0.75,2.865
		l-0.743-2.865c-4.396-16.775-18.075-29.877-35.596-34.081l-2.983-0.716l2.983-0.713c17.522-4.205,31.201-17.311,35.596-34.081
		l0.743-2.867l0.75,2.867C183.973,371.451,197.645,384.557,215.16,388.762L215.16,388.762z"/>
	<path class="st2" d="M109.428,272.021l1.523,0.379l-1.523,0.38c-8.895,2.229-15.84,9.177-18.074,18.074l-0.38,1.518l-0.379-1.518
		c-2.232-8.898-9.18-15.846-18.079-18.074l-1.515-0.38l1.515-0.379c8.899-2.23,15.847-9.181,18.079-18.076l0.379-1.519l0.38,1.519
		C93.588,262.84,100.533,269.791,109.428,272.021L109.428,272.021z"/>
	<path class="st7" d="M366.572,341.65H145.429c-10.489,0-18.991-8.502-18.991-18.994V189.337c0-10.483,8.501-18.988,18.991-18.988
		h221.143c10.488,0,18.99,8.505,18.99,18.988v133.319C385.562,333.149,377.061,341.65,366.572,341.65L366.572,341.65z"/>
	<path class="st9" d="M267.368,270.843c-6.534,5.628-16.202,5.628-22.736,0l-14.113-12.154l-97.356,78.463
		c3.309,2.804,7.589,4.498,12.266,4.498h221.144c4.677,0,8.956-1.694,12.265-4.498l-97.357-78.463L267.368,270.843z"/>
	<path class="st5" d="M267.368,270.843l111.47-95.995c-3.309-2.804-7.588-4.498-12.265-4.498H145.428
		c-4.677,0-8.957,1.694-12.266,4.498l111.469,95.995C251.165,276.471,260.834,276.471,267.368,270.843L267.368,270.843z"/>
	<path class="st3" d="M269.844,246.484c0,7.646-6.198,13.844-13.844,13.844c-7.645,0-13.843-6.198-13.843-13.844
		c0-7.646,6.198-13.843,13.843-13.843C263.646,232.641,269.844,238.839,269.844,246.484z"/>
</g>
</svg>
