<svg version="1.1" id="Layer_1" xmlns="http://www.w3.org/2000/svg" xmlns:xlink="http://www.w3.org/1999/xlink" x="0px" y="0px"
	 width="100%" viewBox="0 0 100 88" enable-background="new 0 0 100 88" xml:space="preserve">
<path fill="#FBFBFB" opacity="1.000000" stroke="none" 
	d="
M70.000000,89.000000 
	C46.666672,89.000000 23.833342,89.000000 1.000009,89.000000 
	C1.000006,59.666676 1.000006,30.333351 1.000003,1.000021 
	C34.333317,1.000014 67.666634,1.000014 100.999969,1.000007 
	C100.999977,30.333313 100.999977,59.666626 100.999985,88.999969 
	C90.833336,89.000000 80.666664,89.000000 70.000000,89.000000 
M35.031708,47.829502 
	C35.031708,60.709949 35.031708,73.590401 35.031708,86.601822 
	C43.313076,86.601822 50.981964,86.601822 58.966583,86.601822 
	C58.966583,73.126343 58.966583,60.042950 59.359074,46.420219 
	C68.426422,33.980606 77.493767,21.540989 86.560524,9.102174 
	C82.432350,6.113231 81.072853,6.459020 77.664040,10.827707 
	C71.431541,18.815195 65.140167,26.757177 58.810677,34.667995 
	C58.000633,35.680416 56.816074,36.393177 55.805012,37.244759 
	C57.639748,25.962376 63.263550,17.052876 70.671829,9.161852 
	C66.534325,6.283306 65.331001,6.445271 62.145924,10.092027 
	C57.262245,15.683598 52.394077,21.288719 46.962383,27.527826 
	C41.595795,21.351053 36.844624,15.858081 32.065430,10.389604 
	C28.183367,5.947649 26.073513,6.104113 22.252710,11.008772 
	C21.157566,11.016311 20.062422,11.023849 18.370367,10.635199 
	C15.041362,8.231535 11.612123,6.803637 7.508430,9.319909 
	C16.831741,22.014978 25.961761,34.446854 35.031708,47.829502 
z"/>
<path fill="#A5A5A5" opacity="1.000000" stroke="none" 
	d="
M18.967278,11.031387 
	C20.062422,11.023849 21.157566,11.016311 22.956062,11.156741 
	C32.389675,21.921974 40.921082,32.714622 50.007908,43.017403 
	C51.966358,45.237930 55.927792,45.691868 58.966583,46.959549 
	C58.966583,60.042950 58.966583,73.126343 58.966583,86.601822 
	C50.981964,86.601822 43.313076,86.601822 35.031708,86.601822 
	C35.031708,73.590401 35.031708,60.709949 35.342842,47.194801 
	C38.852543,45.059105 38.938866,43.170216 37.066082,40.243484 
	C30.892736,30.595966 24.980055,20.781652 18.967278,11.031387 
z"/>
<path fill="#2B2B2B" opacity="1.000000" stroke="none" 
	d="
M59.162827,46.689884 
	C55.927792,45.691868 51.966358,45.237930 50.007908,43.017403 
	C40.921082,32.714622 32.389675,21.921974 23.366753,11.153424 
	C26.073513,6.104113 28.183367,5.947649 32.065430,10.389604 
	C36.844624,15.858081 41.595795,21.351053 46.962383,27.527826 
	C52.394077,21.288719 57.262245,15.683598 62.145924,10.092027 
	C65.331001,6.445271 66.534325,6.283306 70.671829,9.161852 
	C63.263550,17.052876 57.639748,25.962376 55.805012,37.244759 
	C56.816074,36.393177 58.000633,35.680416 58.810677,34.667995 
	C65.140167,26.757177 71.431541,18.815195 77.664040,10.827707 
	C81.072853,6.459020 82.432350,6.113231 86.560524,9.102174 
	C77.493767,21.540989 68.426422,33.980606 59.162827,46.689884 
z"/>
<path fill="#313131" opacity="1.000000" stroke="none" 
	d="
M18.668823,10.833293 
	C24.980055,20.781652 30.892736,30.595966 37.066082,40.243484 
	C38.938866,43.170216 38.852543,45.059105 35.372879,46.719414 
	C25.961761,34.446854 16.831741,22.014978 7.508430,9.319909 
	C11.612123,6.803637 15.041362,8.231535 18.668823,10.833293 
z"/>
</svg>